<?xml version="1.0" encoding="UTF-8" standalone="no" ?>
<!DOCTYPE svg PUBLIC "-//W3C//DTD SVG 1.1//EN" "http://www.w3.org/Graphics/SVG/1.1/DTD/svg11.dtd">
<svg xmlns="http://www.w3.org/2000/svg" xmlns:xlink="http://www.w3.org/1999/xlink" version="1.1" width="1080" height="1080" viewBox="0 0 1080 1080" xml:space="preserve">
<desc>Created with Fabric.js 5.2.4</desc>
<defs>
</defs>
<g transform="matrix(1 0 0 1 540 540)" id="ed2cde07-3f35-44e6-9d2a-4c8108bdc8a2"  >
<rect style="stroke: none; stroke-width: 1; stroke-dasharray: none; stroke-linecap: butt; stroke-dashoffset: 0; stroke-linejoin: miter; stroke-miterlimit: 4; fill: rgb(255,255,255); fill-rule: nonzero; opacity: 1;" vector-effect="non-scaling-stroke"  x="-540" y="-540" rx="0" ry="0" width="1080" height="1080" />
</g>
<g transform="matrix(1 0 0 1 540 540)" id="2c8bf0a7-0ffe-45bc-9f03-3dd4a92afe22"  >
</g>
<g transform="matrix(0.83 0.92 -1.48 1.33 666.21 755.11)" id="1b12155a-955a-4a43-9cb0-442ddae14686"  >
<path style="stroke: rgb(0,0,0); stroke-width: 0; stroke-dasharray: none; stroke-linecap: butt; stroke-dashoffset: 0; stroke-linejoin: miter; stroke-miterlimit: 4; fill: rgb(56,154,214); fill-rule: nonzero; opacity: 1;" vector-effect="non-scaling-stroke"  transform=" translate(-50, -50)" d="M 94.75 50 C 94.75 56.213 89.514 61.25 83.054 61.25 L 16.946 61.25 C 10.486 61.25 5.25 56.213 5.25 50 L 5.25 50 C 5.25 43.787 10.486 38.75 16.945999999999998 38.75 L 83.053 38.75 C 89.514 38.75 94.75 43.787 94.75 50 L 94.75 50 z" stroke-linecap="round" />
</g>
<g transform="matrix(1 0 0 1 540 540)"  >
<g style="" vector-effect="non-scaling-stroke"   >
		<g transform="matrix(12.5 0 0 12.5 -138.85 -40.01)"  >
<path style="stroke: none; stroke-width: 1; stroke-dasharray: none; stroke-linecap: butt; stroke-dashoffset: 0; stroke-linejoin: miter; stroke-miterlimit: 4; fill: rgb(157,203,244); fill-rule: nonzero; opacity: 1;" vector-effect="non-scaling-stroke"  transform=" translate(-20.9, -28.79)" d="M 20.54 18.83 C 20.54 18.83 19 28.17 25.38 32.58 C 25.63 33 26.68 38.91 23.38 38.75 C 20.08 38.59 16.08 37.33 16.08 32 C 16.08 26.67 15.63 21.33 20.54 18.83 Z" stroke-linecap="round" />
</g>
		<g transform="matrix(12.5 0 0 12.5 -12.61 38.04)"  >
<path style="stroke: none; stroke-width: 1; stroke-dasharray: none; stroke-linecap: butt; stroke-dashoffset: 0; stroke-linejoin: miter; stroke-miterlimit: 4; fill: rgb(56,154,214); fill-rule: nonzero; opacity: 1;" vector-effect="non-scaling-stroke"  transform=" translate(-31, -35.04)" d="M 17.79 20.42 C 17.24 20.990000000000002 17.46 22.8 17.419999999999998 23.51 C 17.2 27.220000000000002 16.61 31.51 18.979999999999997 34.75 C 19.859999999999996 35.94 21.409999999999997 36.56 22.619999999999997 35.47 C 23.83 34.379999999999995 24.549999999999997 34.1 25.139999999999997 35.69 C 25.519999999999996 36.69 25.539999999999996 37.87 25.879999999999995 38.919999999999995 C 26.799999999999997 41.74999999999999 30.459999999999994 46.339999999999996 32.05 46.24999999999999 C 32.941026017056366 46.038122519077525 33.76562354494654 45.60864463996806 34.45 45 C 36.970000000000006 43.35 39.45 41.77 42.550000000000004 42.54 C 44.14000000000001 42.93 45.300000000000004 42.94 46.470000000000006 41.62 C 46.89000000000001 41.15 48.050000000000004 39.879999999999995 48.06000000000001 39.269999999999996 C 47.99000000000001 43.67999999999999 44.06000000000001 46.91 40.06000000000001 48.029999999999994 C 32.06000000000001 50.279999999999994 21.67000000000001 52.029999999999994 16.06000000000001 40.029999999999994 C 10.45000000000001 28.029999999999994 17.77 20.44 17.79 20.42 Z" stroke-linecap="round" />
</g>
		<g transform="matrix(12.5 0 0 12.5 0.32 0)"  >
<path style="stroke: rgb(42,80,129); stroke-width: 2; stroke-dasharray: none; stroke-linecap: round; stroke-dashoffset: 0; stroke-linejoin: round; stroke-miterlimit: 4; fill: none; fill-rule: nonzero; opacity: 1;" vector-effect="non-scaling-stroke"  transform=" translate(-32.04, -31.99)" d="M 44.79 19.29 C 51.410177206462734 25.935769361530006 51.81672150361394 36.55155332652406 45.7242042960021 43.68417070912446 C 39.63168708839026 50.816788091724845 29.08286343210834 52.074749508318504 21.483902694128325 46.57485929539081 C 13.88494195614831 41.074969082463106 11.783693398047483 30.661280881155633 16.655411816993002 22.645087501619024 C 21.52713023593852 14.628894122082409 31.738381192101677 11.697938413234478 40.119999999999955 15.90999999999998" stroke-linecap="round" />
</g>
		<g transform="matrix(12.5 0 0 12.5 0.45 0.1)"  >
<path style="stroke: rgb(42,80,129); stroke-width: 2; stroke-dasharray: none; stroke-linecap: round; stroke-dashoffset: 0; stroke-linejoin: round; stroke-miterlimit: 4; fill: none; fill-rule: nonzero; opacity: 1;" vector-effect="non-scaling-stroke"  transform=" translate(-32.05, -32)" d="M 36.73 22.09 C 38.00577005699805 25.235327675987325 38.631670952821395 28.60634826164457 38.57 31.99999999999999 C 38.57 39.87 35.65 46.25 32.05 46.25 C 28.449999999999996 46.25 25.52 39.87 25.52 32 C 25.52 24.130000000000003 28.44 17.75 32 17.75 C 33.10048210128786 17.80870554470488 34.127989403203856 18.318841212205427 34.84 19.16" stroke-linecap="round" />
</g>
		<g transform="matrix(12.5 0 0 12.5 133.74 -182.15)"  >
<circle style="stroke: none; stroke-width: 1; stroke-dasharray: none; stroke-linecap: butt; stroke-dashoffset: 0; stroke-linejoin: miter; stroke-miterlimit: 4; fill: rgb(42,80,129); fill-rule: nonzero; opacity: 1;" vector-effect="non-scaling-stroke"  cx="0" cy="0" r="1" />
</g>
</g>
</g>
</svg>