<?xml version="1.0" ?>
<!-- Uploaded to: SVG Repo, www.svgrepo.com, Generator: SVG Repo Mixer Tools -->
<svg width="800px" height="800px" viewBox="0 0 64 64" xmlns="http://www.w3.org/2000/svg">
<defs>
<style>.cls-1{fill:#9dcbf4;}.cls-2{fill:#389ad6;}.cls-3{fill:none;stroke:#2a5081;stroke-linecap:round;stroke-linejoin:round;stroke-width:2px;}.cls-4{fill:#2a5081;}</style>
</defs>
<title/>
<g data-name="Layer 5" id="Layer_5">
<path class="cls-1" d="M20.54,18.83S19,28.17,25.38,32.58c.25.42,1.3,6.33-2,6.17s-7.3-1.42-7.3-6.75S15.63,21.33,20.54,18.83Z"/>
<path class="cls-2" d="M17.79,20.42c-.55.57-.33,2.38-.37,3.09-.22,3.71-.81,8,1.56,11.24.88,1.19,2.43,1.81,3.64.72s1.93-1.37,2.52.22c.38,1,.4,2.18.74,3.23.92,2.83,4.58,7.42,6.17,7.33A5.54,5.54,0,0,0,34.45,45c2.52-1.65,5-3.23,8.1-2.46,1.59.39,2.75.4,3.92-.92.42-.47,1.58-1.74,1.59-2.35-.07,4.41-4,7.64-8,8.76-8,2.25-18.39,4-24-8S17.77,20.44,17.79,20.42Z"/>
<path class="cls-3" d="M44.79,19.29a18,18,0,1,1-4.67-3.38"/>
<path class="cls-3" d="M36.73,22.09A25.15,25.15,0,0,1,38.57,32c0,7.87-2.92,14.25-6.52,14.25S25.52,39.87,25.52,32,28.44,17.75,32,17.75a4,4,0,0,1,2.84,1.41"/>
<circle class="cls-4" cx="42.71" cy="17.42" r="1"/>
</g>
</svg>